<mxfile host="app.diagrams.net" modified="2022-01-04T06:44:23.534Z" agent="5.0 (Windows NT 10.0; Win64; x64) AppleWebKit/537.36 (KHTML, like Gecko) Chrome/92.0.4515.159 Safari/537.36" etag="ieAjvsVbJ-RWyfJeRYz1" version="16.1.2" type="github">
  <diagram id="Gp89k3uZ7JquAyVOH4Ro" name="第 1 页">
    <mxGraphModel dx="1221" dy="578" grid="1" gridSize="10" guides="1" tooltips="1" connect="1" arrows="1" fold="1" page="1" pageScale="1" pageWidth="827" pageHeight="1169" math="0" shadow="0">
      <root>
        <mxCell id="0" />
        <mxCell id="1" parent="0" />
        <mxCell id="KkLDeA1utWJuvQl8mLjJ-3" value="" style="edgeStyle=orthogonalEdgeStyle;rounded=0;orthogonalLoop=1;jettySize=auto;html=1;" edge="1" parent="1" source="KkLDeA1utWJuvQl8mLjJ-1" target="KkLDeA1utWJuvQl8mLjJ-25">
          <mxGeometry relative="1" as="geometry" />
        </mxCell>
        <mxCell id="KkLDeA1utWJuvQl8mLjJ-27" style="edgeStyle=orthogonalEdgeStyle;rounded=0;orthogonalLoop=1;jettySize=auto;html=1;entryX=0.5;entryY=0;entryDx=0;entryDy=0;" edge="1" parent="1" source="KkLDeA1utWJuvQl8mLjJ-1" target="KkLDeA1utWJuvQl8mLjJ-23">
          <mxGeometry relative="1" as="geometry" />
        </mxCell>
        <mxCell id="KkLDeA1utWJuvQl8mLjJ-1" value="开始" style="strokeWidth=2;html=1;shape=mxgraph.flowchart.start_1;whiteSpace=wrap;" vertex="1" parent="1">
          <mxGeometry x="266" y="60" width="100" height="60" as="geometry" />
        </mxCell>
        <mxCell id="KkLDeA1utWJuvQl8mLjJ-5" value="" style="edgeStyle=orthogonalEdgeStyle;rounded=0;orthogonalLoop=1;jettySize=auto;html=1;" edge="1" parent="1" source="KkLDeA1utWJuvQl8mLjJ-2" target="KkLDeA1utWJuvQl8mLjJ-4">
          <mxGeometry relative="1" as="geometry" />
        </mxCell>
        <mxCell id="KkLDeA1utWJuvQl8mLjJ-2" value="查询本地已安装应用的缓存数据" style="whiteSpace=wrap;html=1;strokeWidth=2;" vertex="1" parent="1">
          <mxGeometry x="354" y="280" width="120" height="50" as="geometry" />
        </mxCell>
        <mxCell id="KkLDeA1utWJuvQl8mLjJ-7" value="是" style="edgeStyle=orthogonalEdgeStyle;rounded=0;orthogonalLoop=1;jettySize=auto;html=1;" edge="1" parent="1" source="KkLDeA1utWJuvQl8mLjJ-4" target="KkLDeA1utWJuvQl8mLjJ-6">
          <mxGeometry relative="1" as="geometry" />
        </mxCell>
        <mxCell id="KkLDeA1utWJuvQl8mLjJ-19" value="否" style="edgeStyle=orthogonalEdgeStyle;rounded=0;orthogonalLoop=1;jettySize=auto;html=1;" edge="1" parent="1" source="KkLDeA1utWJuvQl8mLjJ-4" target="KkLDeA1utWJuvQl8mLjJ-18">
          <mxGeometry relative="1" as="geometry" />
        </mxCell>
        <mxCell id="KkLDeA1utWJuvQl8mLjJ-4" value="缓存数据是否为空" style="rhombus;whiteSpace=wrap;html=1;strokeWidth=2;" vertex="1" parent="1">
          <mxGeometry x="337" y="380" width="154" height="80" as="geometry" />
        </mxCell>
        <mxCell id="KkLDeA1utWJuvQl8mLjJ-9" value="" style="edgeStyle=orthogonalEdgeStyle;rounded=0;orthogonalLoop=1;jettySize=auto;html=1;" edge="1" parent="1" source="KkLDeA1utWJuvQl8mLjJ-6" target="KkLDeA1utWJuvQl8mLjJ-8">
          <mxGeometry relative="1" as="geometry" />
        </mxCell>
        <mxCell id="KkLDeA1utWJuvQl8mLjJ-6" value="从接口请求应用市场适配本环境的应用列表" style="whiteSpace=wrap;html=1;strokeWidth=2;" vertex="1" parent="1">
          <mxGeometry x="351" y="500" width="126" height="50" as="geometry" />
        </mxCell>
        <mxCell id="KkLDeA1utWJuvQl8mLjJ-11" value="" style="edgeStyle=orthogonalEdgeStyle;rounded=0;orthogonalLoop=1;jettySize=auto;html=1;" edge="1" parent="1" source="KkLDeA1utWJuvQl8mLjJ-8" target="KkLDeA1utWJuvQl8mLjJ-10">
          <mxGeometry relative="1" as="geometry" />
        </mxCell>
        <mxCell id="KkLDeA1utWJuvQl8mLjJ-8" value="应用列表是否为空" style="rhombus;whiteSpace=wrap;html=1;strokeWidth=2;" vertex="1" parent="1">
          <mxGeometry x="331" y="600" width="166" height="80" as="geometry" />
        </mxCell>
        <mxCell id="KkLDeA1utWJuvQl8mLjJ-13" value="" style="edgeStyle=orthogonalEdgeStyle;rounded=0;orthogonalLoop=1;jettySize=auto;html=1;" edge="1" parent="1" source="KkLDeA1utWJuvQl8mLjJ-10" target="KkLDeA1utWJuvQl8mLjJ-12">
          <mxGeometry relative="1" as="geometry" />
        </mxCell>
        <mxCell id="KkLDeA1utWJuvQl8mLjJ-10" value="通过dpkg --list|grep -E &#39;\saspell\s | autoconf&#39; 查找本地已安装应用列表" style="whiteSpace=wrap;html=1;strokeWidth=2;" vertex="1" parent="1">
          <mxGeometry x="354" y="730" width="120" height="60" as="geometry" />
        </mxCell>
        <mxCell id="KkLDeA1utWJuvQl8mLjJ-15" value="" style="edgeStyle=orthogonalEdgeStyle;rounded=0;orthogonalLoop=1;jettySize=auto;html=1;" edge="1" parent="1" source="KkLDeA1utWJuvQl8mLjJ-12" target="KkLDeA1utWJuvQl8mLjJ-14">
          <mxGeometry relative="1" as="geometry" />
        </mxCell>
        <mxCell id="KkLDeA1utWJuvQl8mLjJ-12" value="本地已安装&lt;br&gt;应用列表是否为空" style="rhombus;whiteSpace=wrap;html=1;strokeWidth=2;" vertex="1" parent="1">
          <mxGeometry x="351" y="840" width="126" height="80" as="geometry" />
        </mxCell>
        <mxCell id="KkLDeA1utWJuvQl8mLjJ-17" value="" style="edgeStyle=orthogonalEdgeStyle;rounded=0;orthogonalLoop=1;jettySize=auto;html=1;" edge="1" parent="1" source="KkLDeA1utWJuvQl8mLjJ-14" target="KkLDeA1utWJuvQl8mLjJ-16">
          <mxGeometry relative="1" as="geometry" />
        </mxCell>
        <mxCell id="KkLDeA1utWJuvQl8mLjJ-14" value="更新缓存" style="whiteSpace=wrap;html=1;strokeWidth=2;" vertex="1" parent="1">
          <mxGeometry x="354" y="960" width="120" height="60" as="geometry" />
        </mxCell>
        <mxCell id="KkLDeA1utWJuvQl8mLjJ-22" style="edgeStyle=orthogonalEdgeStyle;rounded=0;orthogonalLoop=1;jettySize=auto;html=1;entryX=0.5;entryY=0.167;entryDx=0;entryDy=0;entryPerimeter=0;" edge="1" parent="1" source="KkLDeA1utWJuvQl8mLjJ-16" target="KkLDeA1utWJuvQl8mLjJ-21">
          <mxGeometry relative="1" as="geometry" />
        </mxCell>
        <mxCell id="KkLDeA1utWJuvQl8mLjJ-16" value="渲染应用列表" style="whiteSpace=wrap;html=1;strokeWidth=2;" vertex="1" parent="1">
          <mxGeometry x="354" y="1070" width="120" height="60" as="geometry" />
        </mxCell>
        <mxCell id="KkLDeA1utWJuvQl8mLjJ-20" style="edgeStyle=orthogonalEdgeStyle;rounded=0;orthogonalLoop=1;jettySize=auto;html=1;entryX=1;entryY=0.5;entryDx=0;entryDy=0;" edge="1" parent="1" source="KkLDeA1utWJuvQl8mLjJ-18" target="KkLDeA1utWJuvQl8mLjJ-16">
          <mxGeometry relative="1" as="geometry">
            <Array as="points">
              <mxPoint x="648" y="1100" />
            </Array>
          </mxGeometry>
        </mxCell>
        <mxCell id="KkLDeA1utWJuvQl8mLjJ-18" value="从缓存中加载数据" style="whiteSpace=wrap;html=1;strokeWidth=2;" vertex="1" parent="1">
          <mxGeometry x="588" y="390" width="120" height="60" as="geometry" />
        </mxCell>
        <mxCell id="KkLDeA1utWJuvQl8mLjJ-21" value="结束" style="strokeWidth=2;html=1;shape=mxgraph.flowchart.terminator;whiteSpace=wrap;" vertex="1" parent="1">
          <mxGeometry x="364" y="1180" width="100" height="60" as="geometry" />
        </mxCell>
        <mxCell id="KkLDeA1utWJuvQl8mLjJ-24" style="edgeStyle=orthogonalEdgeStyle;rounded=0;orthogonalLoop=1;jettySize=auto;html=1;entryX=0;entryY=0.5;entryDx=0;entryDy=0;exitX=0.5;exitY=1;exitDx=0;exitDy=0;" edge="1" parent="1" source="KkLDeA1utWJuvQl8mLjJ-23" target="KkLDeA1utWJuvQl8mLjJ-6">
          <mxGeometry relative="1" as="geometry">
            <mxPoint x="203" y="340" as="targetPoint" />
          </mxGeometry>
        </mxCell>
        <mxCell id="KkLDeA1utWJuvQl8mLjJ-23" value="界面操作刷新" style="whiteSpace=wrap;html=1;strokeWidth=2;" vertex="1" parent="1">
          <mxGeometry x="160" y="190" width="126" height="50" as="geometry" />
        </mxCell>
        <mxCell id="KkLDeA1utWJuvQl8mLjJ-28" style="edgeStyle=orthogonalEdgeStyle;rounded=0;orthogonalLoop=1;jettySize=auto;html=1;entryX=0.5;entryY=0;entryDx=0;entryDy=0;" edge="1" parent="1" source="KkLDeA1utWJuvQl8mLjJ-25" target="KkLDeA1utWJuvQl8mLjJ-2">
          <mxGeometry relative="1" as="geometry" />
        </mxCell>
        <mxCell id="KkLDeA1utWJuvQl8mLjJ-25" value="界面正常加载" style="whiteSpace=wrap;html=1;strokeWidth=2;" vertex="1" parent="1">
          <mxGeometry x="354" y="190" width="120" height="50" as="geometry" />
        </mxCell>
      </root>
    </mxGraphModel>
  </diagram>
</mxfile>
